<svg width="739" height="468" viewBox="0 0 739 468" fill="none" xmlns="http://www.w3.org/2000/svg">
<g clip-path="url(#clip0_1_2)">
<path d="M127.133 467.333L125.133 467.294C125.906 445.056 128.279 422.903 132.232 401.006C140.881 354.126 155.262 323.337 174.975 309.495L176.124 311.131C130.072 343.465 127.156 466.097 127.133 467.333Z" fill="#2F2E41"/>
<path d="M152.133 466.854L150.133 466.815C150.176 464.6 151.426 412.401 171.975 397.973L173.124 399.61C153.403 413.456 152.142 466.322 152.133 466.854Z" fill="#2F2E41"/>
<path d="M187.502 311.313C181.979 311.313 177.502 306.836 177.502 301.313C177.502 295.79 181.979 291.313 187.502 291.313C193.025 291.313 197.502 295.79 197.502 301.313C197.502 306.836 193.025 311.313 187.502 311.313Z" fill="#6C63FF"/>
<path d="M182.55 397.313C177.027 397.313 172.55 392.836 172.55 387.313C172.55 381.79 177.027 377.313 182.55 377.313C188.072 377.313 192.55 381.79 192.55 387.313C192.55 392.836 188.072 397.313 182.55 397.313Z" fill="#6C63FF"/>
<path d="M147.471 317.308C149.351 329.312 144.452 340.048 144.452 340.048C144.452 340.048 136.507 331.322 134.628 319.318C132.748 307.314 137.647 296.578 137.647 296.578C137.647 296.578 145.592 305.304 147.471 317.308Z" fill="#2F2E41"/>
<path d="M180.159 346.461C168.666 350.404 157.24 347.451 157.24 347.451C157.24 347.451 164.448 338.107 175.941 334.165C187.434 330.223 198.859 333.175 198.859 333.175C198.859 333.175 191.652 342.519 180.159 346.461Z" fill="#2F2E41"/>
<path d="M180.528 422.623C175.326 424.256 169.787 424.496 164.464 423.316C167.844 419.013 172.396 415.779 177.571 414.004C182.747 412.228 188.326 411.987 193.636 413.31C190.157 417.508 185.637 420.72 180.528 422.623Z" fill="#2F2E41"/>
<path d="M413.904 155.197L478.376 121.671C478.376 121.671 500.027 97.8283 513.624 87.0587C527.221 76.2891 531.407 84.2008 531.407 84.2008L537.122 93.7271L523.309 112.939L485.997 144.535L419.328 170.648C418.285 172.356 416.779 173.732 414.985 174.618C413.191 175.503 411.183 175.862 409.194 175.651C407.204 175.441 405.315 174.671 403.746 173.429C402.177 172.188 400.993 170.527 400.33 168.64C399.667 166.752 399.554 164.715 400.003 162.766C400.452 160.816 401.445 159.034 402.866 157.626C404.287 156.219 406.079 155.243 408.033 154.813C409.987 154.383 412.022 154.516 413.904 155.197Z" fill="#9F616A"/>
<path d="M581.603 126.202L585.42 102.85L596.198 100.155C596.198 100.155 604.752 97.5203 606.751 114.75C608.751 131.98 607.201 164.149 607.201 164.149L629.083 233.445C630.904 234.291 632.446 235.638 633.531 237.327C634.615 239.016 635.198 240.979 635.21 242.986C635.223 244.994 634.665 246.963 633.601 248.666C632.537 250.369 631.012 251.734 629.202 252.603C627.393 253.472 625.373 253.81 623.379 253.576C621.386 253.342 619.499 252.546 617.94 251.281C616.381 250.017 615.213 248.335 614.573 246.433C613.932 244.53 613.845 242.485 614.322 240.535L585.644 174.927L581.603 126.202Z" fill="#9F616A"/>
<path d="M492.455 453.915L478.352 453.914L471.642 399.515L492.458 399.516L492.455 453.915Z" fill="#9F616A"/>
<path d="M496.053 449.31L468.278 449.309H468.276C463.582 449.309 459.08 451.174 455.761 454.494C452.441 457.813 450.576 462.315 450.576 467.009V467.585L496.052 467.586L496.053 449.31Z" fill="#2F2E41"/>
<path d="M646.284 453.915L632.18 453.914L625.471 399.515L646.286 399.516L646.284 453.915Z" fill="#9F616A"/>
<path d="M649.881 449.31L622.106 449.309H622.105C617.411 449.309 612.909 451.174 609.589 454.494C606.27 457.813 604.405 462.315 604.405 467.009V467.585L649.88 467.586L649.881 449.31Z" fill="#2F2E41"/>
<path d="M576.657 79.5537L600.05 99.5231L580.852 160.276L576.52 173.842C576.52 173.842 602.97 198.229 619.336 266.354C635.702 334.479 662.474 425.001 662.474 425.001L605.962 441.178L559.986 287.072L505.907 407.972L499.663 443.732L451.537 429.542L462.89 339.859L519.651 184.618L513.754 143.467C513.754 143.467 504.9 122.926 520.282 101.18L525.107 80.7459L542.39 76.4889L576.657 79.5537Z" fill="#2F2E41"/>
<path d="M537.795 68.6977L601.04 68.6977C602.341 68.6962 603.588 68.1788 604.508 67.2589C605.428 66.3389 605.946 65.0916 605.947 63.7907V36.5297C605.947 26.8414 602.098 17.5499 595.248 10.6993C588.397 3.84863 579.106 -3.05176e-05 569.417 -3.05176e-05C559.729 -3.05176e-05 550.438 3.84863 543.587 10.6993C536.736 17.5499 532.888 26.8414 532.888 36.5297V63.7907C532.889 65.0916 533.407 66.3389 534.326 67.2589C535.246 68.1788 536.494 68.6962 537.795 68.6977Z" fill="#2F2E41"/>
<path d="M538.411 54.1272C531.316 41.1483 536.086 24.8754 549.064 17.7805C562.043 10.6856 578.316 15.4555 585.411 28.4343C592.506 41.4132 587.736 57.6861 574.757 64.781C561.778 71.8759 545.505 67.106 538.411 54.1272Z" fill="#9F616A"/>
<path d="M524.246 39.2558L562.919 39.2558L563.315 33.7035L565.298 39.2558L571.253 39.2558L572.039 28.2513L575.969 39.2558H587.491V38.7106C587.482 31.0494 584.435 23.7045 579.018 18.2872C573.601 12.8699 566.256 9.82263 558.595 9.81396L553.142 9.81396C545.481 9.82261 538.136 12.8698 532.719 18.2871C527.301 23.7044 524.254 31.0494 524.246 38.7106V39.2558Z" fill="#2F2E41"/>
<path d="M563.235 73.7865C563.526 73.7862 563.817 73.7606 564.104 73.7098L592.422 68.7134V21.9118L561.249 21.9118L562.021 22.8117C572.758 35.3347 564.669 55.6409 558.891 66.6305C558.465 67.4354 558.275 68.3442 558.343 69.2522C558.411 70.1603 558.734 71.0307 559.275 71.7632C559.728 72.3896 560.323 72.8996 561.012 73.2513C561.7 73.6031 562.462 73.7865 563.235 73.7865Z" fill="#2F2E41"/>
<path d="M329.046 319.146L577.227 406.892C583.363 409.054 590.107 408.694 595.977 405.89C601.848 403.086 606.367 398.068 608.543 391.937L651.177 271.352C653.338 265.215 652.978 258.472 650.174 252.601C647.37 246.731 642.352 242.212 636.221 240.036L388.04 152.289C381.903 150.128 375.16 150.488 369.29 153.292C363.419 156.096 358.9 161.114 356.724 167.245L314.09 287.83C311.929 293.967 312.289 300.71 315.093 306.581C317.897 312.451 322.915 316.97 329.046 319.146Z" fill="white"/>
<path d="M314.09 287.83L313.865 288.468C311.794 294.329 312.136 300.771 314.815 306.379C317.495 311.987 322.292 316.301 328.152 318.372L577.574 406.558C583.433 408.628 589.875 408.287 595.482 405.609C601.089 402.931 605.404 398.136 607.476 392.277L607.701 391.639L314.09 287.83Z" fill="#F2F2F2"/>
<path d="M592.715 268.034C609.166 278.858 630.25 270.712 637.623 258.846L636.448 258.178C622.443 249.448 601.644 254.312 592.715 268.034Z" fill="#6C63FF"/>
<path d="M386.564 298.745C390.591 300.168 394.216 300.103 397.341 298.551C404.404 295.041 407.718 284.636 410.381 276.275C411.156 273.843 411.888 271.546 412.633 269.668L412.644 269.639C413.94 265.914 413.714 261.828 412.016 258.268C410.317 254.708 407.282 251.963 403.57 250.628L370.188 238.825C366.166 237.403 362.545 237.468 359.422 239.018C352.362 242.523 349.045 252.924 346.379 261.282C345.602 263.719 344.868 266.021 344.12 267.902C342.816 271.631 343.038 275.724 344.736 279.29C346.435 282.856 349.473 285.607 353.19 286.945L386.564 298.745ZM411.245 269.134C410.483 271.056 409.745 273.372 408.964 275.824C406.386 283.917 403.178 293.99 396.68 297.219C393.89 298.604 390.744 298.645 387.06 297.343L353.688 285.544C350.345 284.342 347.611 281.869 346.081 278.664C344.55 275.458 344.346 271.778 345.513 268.423C346.269 266.523 347.011 264.196 347.796 261.734C350.376 253.643 353.587 243.574 360.084 240.35C362.87 238.967 366.014 238.927 369.692 240.227L403.072 252.029C406.411 253.231 409.142 255.7 410.672 258.902C412.202 262.104 412.408 265.781 411.245 269.134Z" fill="#3F3D56"/>
<path d="M599.634 271.931C605.5 273.965 611.819 274.313 617.873 272.934C626.713 270.993 634.737 265.714 638.811 259.159L639.219 258.502L637.385 257.459C623.169 248.605 601.852 253.405 592.651 267.542L592.247 268.162L592.865 268.568C594.977 269.959 597.25 271.089 599.634 271.931ZM637.127 259.024C633.14 264.949 625.72 269.688 617.554 271.481C609.616 273.335 601.266 271.988 594.314 267.731C603.315 254.712 623.256 250.393 636.61 258.73L637.127 259.024Z" fill="#3F3D56"/>
<path d="M590.915 358.48C592.999 359.305 595.268 359.547 597.479 359.179C599.691 358.812 601.76 357.85 603.466 356.396C605.462 354.651 606.975 352.421 607.86 349.922C608.745 347.422 608.971 344.737 608.516 342.125C608.094 339.877 607.058 337.79 605.523 336.095C603.987 334.4 602.013 333.164 599.817 332.522L555.339 316.796C553.228 315.921 550.916 315.646 548.659 316.001C546.402 316.356 544.286 317.328 542.546 318.809C540.551 320.554 539.039 322.784 538.155 325.284C537.272 327.783 537.047 330.468 537.502 333.08C538.38 337.67 541.479 341.051 546.203 342.669L590.682 358.396C590.76 358.424 590.838 358.452 590.915 358.48ZM599.541 334C601.439 334.586 603.141 335.677 604.465 337.158C605.789 338.639 606.685 340.452 607.055 342.404C607.465 344.757 607.261 347.176 606.464 349.428C605.667 351.68 604.304 353.688 602.505 355.26C600.963 356.566 599.09 357.42 597.092 357.727C595.095 358.034 593.051 357.781 591.189 356.997L546.688 341.264C544.745 340.703 542.994 339.616 541.631 338.122C540.268 336.628 539.344 334.786 538.963 332.8C538.553 330.447 538.755 328.028 539.551 325.777C540.347 323.525 541.71 321.516 543.507 319.944C545.052 318.638 546.926 317.784 548.924 317.476C550.922 317.167 552.967 317.416 554.833 318.195L599.336 333.929C599.405 333.952 599.473 333.976 599.541 334Z" fill="#3F3D56"/>
<path d="M386.267 263.266L400.288 268.223C401.218 268.552 402.24 268.498 403.13 268.073C404.02 267.648 404.704 266.887 405.033 265.957C405.362 265.027 405.308 264.005 404.883 263.115C404.458 262.226 403.697 261.541 402.767 261.212L388.746 256.255C387.816 255.926 386.794 255.98 385.904 256.405C385.014 256.83 384.33 257.591 384.001 258.521C383.672 259.451 383.726 260.473 384.151 261.363C384.576 262.252 385.337 262.937 386.267 263.266Z" fill="#6C63FF"/>
<path d="M382.301 274.483L396.323 279.44C397.252 279.769 398.274 279.715 399.164 279.29C400.054 278.865 400.739 278.104 401.067 277.174C401.396 276.245 401.342 275.223 400.917 274.333C400.492 273.443 399.731 272.758 398.801 272.43L384.78 267.472C383.85 267.144 382.828 267.198 381.938 267.623C381.048 268.047 380.364 268.809 380.035 269.738C379.706 270.668 379.76 271.69 380.185 272.58C380.61 273.47 381.371 274.154 382.301 274.483Z" fill="#6C63FF"/>
<path d="M378.335 285.7L392.357 290.658C392.817 290.82 393.305 290.891 393.792 290.865C394.28 290.839 394.758 290.718 395.198 290.507C395.639 290.297 396.034 290.002 396.36 289.639C396.687 289.276 396.939 288.852 397.101 288.392C397.264 287.931 397.335 287.443 397.309 286.956C397.283 286.468 397.161 285.991 396.951 285.55C396.741 285.109 396.445 284.715 396.082 284.388C395.719 284.061 395.296 283.81 394.835 283.647L380.814 278.689C380.353 278.527 379.866 278.456 379.378 278.482C378.89 278.508 378.413 278.629 377.972 278.84C377.531 279.05 377.137 279.345 376.81 279.708C376.484 280.071 376.232 280.495 376.069 280.955C375.906 281.416 375.836 281.904 375.862 282.391C375.887 282.879 376.009 283.357 376.219 283.797C376.43 284.238 376.725 284.633 377.088 284.959C377.451 285.286 377.875 285.537 378.335 285.7Z" fill="#6C63FF"/>
<path d="M361.729 254.59L375.751 259.548C376.211 259.71 376.699 259.781 377.187 259.755C377.674 259.729 378.152 259.608 378.592 259.397C379.033 259.187 379.428 258.892 379.754 258.529C380.081 258.166 380.333 257.742 380.496 257.282C380.658 256.821 380.729 256.333 380.703 255.846C380.677 255.358 380.556 254.881 380.345 254.44C380.135 253.999 379.84 253.605 379.477 253.278C379.114 252.951 378.69 252.7 378.23 252.537L364.208 247.579C363.278 247.251 362.256 247.305 361.366 247.73C360.476 248.155 359.792 248.916 359.463 249.845C359.135 250.775 359.189 251.797 359.614 252.687C360.039 253.577 360.8 254.261 361.729 254.59Z" fill="#6C63FF"/>
<path d="M357.763 265.807L371.785 270.765C372.245 270.928 372.733 270.998 373.221 270.972C373.708 270.947 374.186 270.825 374.626 270.615C375.067 270.404 375.462 270.109 375.788 269.746C376.115 269.383 376.367 268.959 376.53 268.499C376.692 268.039 376.763 267.551 376.737 267.063C376.711 266.575 376.59 266.098 376.379 265.657C376.169 265.217 375.874 264.822 375.511 264.495C375.148 264.169 374.724 263.917 374.264 263.754L360.242 258.797C359.782 258.634 359.294 258.563 358.806 258.589C358.319 258.615 357.841 258.737 357.4 258.947C356.96 259.157 356.565 259.453 356.238 259.816C355.912 260.179 355.66 260.602 355.497 261.063C355.334 261.523 355.264 262.011 355.29 262.498C355.316 262.986 355.437 263.464 355.648 263.904C355.858 264.345 356.153 264.74 356.516 265.066C356.879 265.393 357.303 265.645 357.763 265.807Z" fill="#6C63FF"/>
<path d="M353.797 277.025L367.819 281.982C368.749 282.311 369.771 282.257 370.661 281.832C371.55 281.407 372.235 280.646 372.564 279.716C372.892 278.786 372.838 277.764 372.413 276.874C371.988 275.985 371.227 275.3 370.298 274.971L356.276 270.014C355.816 269.851 355.328 269.781 354.84 269.806C354.353 269.832 353.875 269.954 353.434 270.164C352.994 270.375 352.599 270.67 352.272 271.033C351.946 271.396 351.694 271.82 351.531 272.28C351.369 272.74 351.298 273.228 351.324 273.716C351.35 274.203 351.471 274.681 351.682 275.122C351.892 275.562 352.187 275.957 352.55 276.284C352.913 276.61 353.337 276.862 353.797 277.025Z" fill="#6C63FF"/>
<path d="M347.441 193.494L641.053 297.304L640.557 298.706L346.945 194.897L347.441 193.494Z" fill="#3F3D56"/>
<path d="M329.046 319.146L577.227 406.892C583.363 409.054 590.107 408.694 595.977 405.89C601.848 403.086 606.367 398.068 608.543 391.937L651.177 271.352C653.338 265.215 652.978 258.472 650.174 252.601C647.37 246.731 642.352 242.212 636.221 240.036L388.04 152.289C381.903 150.128 375.16 150.488 369.29 153.292C363.419 156.096 358.9 161.114 356.724 167.245L314.09 287.83C311.929 293.967 312.289 300.71 315.093 306.581C317.897 312.451 322.915 316.97 329.046 319.146ZM635.725 241.438C641.485 243.482 646.199 247.727 648.832 253.242C651.466 258.757 651.805 265.091 649.774 270.856L607.14 391.441C605.097 397.201 600.852 401.914 595.337 404.548C589.822 407.182 583.487 407.521 577.723 405.49L329.542 317.744C323.782 315.7 319.068 311.455 316.434 305.94C313.801 300.425 313.462 294.09 315.493 288.326L358.127 167.741C360.17 161.981 364.415 157.267 369.93 154.634C375.445 152 381.78 151.661 387.544 153.692L635.725 241.438Z" fill="#3F3D56"/>
<path d="M1 468L738 468C738.265 468 738.52 467.895 738.707 467.707C738.895 467.52 739 467.265 739 467C739 466.735 738.895 466.48 738.707 466.293C738.52 466.105 738.265 466 738 466L1 466C0.734784 466 0.480444 466.105 0.292908 466.293C0.105371 466.48 0 466.735 0 467C0 467.265 0.105371 467.52 0.292908 467.707C0.480444 467.895 0.734784 468 1 468Z" fill="#CBCBCB"/>
</g>
<defs>
<clipPath id="clip0_1_2">
<rect width="739" height="468" fill="white" transform="matrix(-1 0 0 1 739 0)"/>
</clipPath>
</defs>
</svg>
